<svg width="176" height="176" viewBox="0 0 176 176" fill="none" xmlns="http://www.w3.org/2000/svg">
<g clip-path="url(#clip0_90_252)">
<g clip-path="url(#clip1_90_252)">
<path d="M155.452 51.6665C154.222 49.2254 151.666 47.6112 148.135 46.6896C148.68 43.2392 148.242 40.3559 146.583 38.29C144.885 36.1778 142.072 35.0965 138.393 34.9263C138.201 31.4435 137.178 28.7259 135.125 27.0521C133.035 25.3473 130.076 24.8499 126.414 25.4556C125.507 22.0962 123.935 19.6473 121.59 18.4375C118.742 16.9706 115.115 17.335 110.802 19.5076C103.961 22.9535 95.8481 30.7922 87.6392 41.3862C74.2984 23.8097 61.4201 14.3261 53.8609 18.1338C51.4943 19.326 49.8968 21.7722 48.9576 25.1404C45.5073 24.5954 42.6212 25.0265 40.5639 26.6894C38.5322 28.3176 37.4534 30.9927 37.2249 34.4996C35.1976 34.6061 33.4214 34.9967 31.9737 35.7259C30.917 36.2582 30.0242 36.9599 29.3253 37.8161C27.6746 39.8431 27.1801 42.692 27.6935 46.1706C26.5958 46.4642 25.5729 46.8067 24.6884 47.2522C22.8217 48.1925 21.4678 49.4652 20.6587 51.0463C17.7389 56.6864 22.1627 65.5695 33.1004 76.0608C36.3538 79.1747 40.111 82.3302 44.2072 85.4732C26.2284 98.9874 16.4854 112.082 20.3362 119.727C21.4935 122.025 23.8138 123.6 27.0232 124.553C26.4698 128.044 26.9356 130.913 28.5752 132.953C30.1662 134.939 32.7749 135.972 36.112 136.25C36.2921 139.752 37.3216 142.496 39.3769 144.175C41.3462 145.783 44.0826 146.327 47.4528 145.883C48.3632 149.248 49.9295 151.7 52.2795 152.906C55.131 154.379 58.7601 154.02 63.0731 151.847C70.1725 148.271 78.6409 139.937 87.1669 128.714C100.86 147.121 114.186 157.151 121.923 153.254C124.284 152.065 125.881 149.633 126.821 146.279C129.572 146.708 131.97 146.537 133.865 145.582C134.348 145.339 134.807 145.036 135.223 144.704C137.281 143.055 138.334 140.357 138.559 136.902C140.587 136.796 142.36 136.399 143.807 135.67C144.864 135.138 145.754 134.43 146.453 133.574C148.107 131.553 148.601 128.704 148.091 125.217C149.188 124.923 150.211 124.581 151.096 124.135C152.962 123.195 154.31 121.925 155.122 120.35C159.043 112.737 149.429 99.5549 131.599 85.8887C149.566 72.3897 159.3 59.3055 155.452 51.6665ZM145.21 39.3842C146.55 41.0572 146.933 43.4057 146.485 46.2888C143.76 45.7965 140.517 45.6794 136.869 45.9118C137.827 42.4837 138.351 39.3897 138.423 36.6888C141.487 36.8529 143.853 37.6913 145.21 39.3842ZM146.051 123.883C143.421 124.365 140.254 124.456 136.655 124.187C134.024 115.374 128.809 104.607 121.454 92.9946C122.496 92.3183 123.55 91.6363 124.551 90.9518C129.777 96.6082 134.424 102.203 138.029 107.502C142.351 113.865 145.022 119.425 146.051 123.883ZM92.1372 121.869C92.8104 120.889 93.4831 119.88 94.153 118.866C105.919 126.542 116.917 132.049 125.919 134.838C126.169 138.536 126.005 141.7 125.49 144.336C117.06 142.325 104.984 134.121 92.1372 121.869ZM29.7307 47.5132C32.3668 47.0281 35.5474 46.9383 39.1551 47.2093C39.8608 49.5395 40.6848 51.9762 41.7598 54.6106C44.7673 61.9817 49.0767 70.0655 54.345 78.3934C53.297 79.0726 52.2378 79.7575 51.2334 80.4362C46.0078 74.7798 41.3607 69.1851 37.7555 63.8865C33.4309 57.5315 30.7593 51.971 29.7307 47.5132ZM82.4276 48.4553C81.7116 49.4787 80.9985 50.5794 80.2885 51.6424C69.033 44.4221 58.5395 39.2447 49.8801 36.5639C49.6276 32.9032 49.7853 29.7706 50.2923 27.1462C58.4403 29.1702 70.0835 36.9586 82.4276 48.4553ZM134.977 46.0586C132.104 46.3175 128.996 46.7954 125.69 47.4523C126.342 44.2288 126.799 41.2049 127.055 38.3969C130.699 37.3248 133.944 36.7056 136.671 36.6139C136.584 39.3297 136.039 42.4778 134.977 46.0586ZM106.928 76.1086C108.387 79.0034 109.741 81.8782 111.038 84.7393C109.43 88.2788 107.732 91.8418 105.882 95.4308C105.33 96.5083 104.74 97.5106 104.174 98.5741C104.033 98.7529 103.899 98.9286 103.75 99.1045C103.004 100.013 102.236 100.875 101.485 101.772C101.285 101.931 101.101 102.095 100.906 102.251C99.9678 103.004 99.0152 103.686 98.0677 104.422C97.8667 104.524 97.6773 104.634 97.4705 104.738C94.2135 106.378 90.9765 107.886 87.7598 109.334C84.5599 107.857 81.3458 106.307 78.1163 104.643C77.4482 104.303 76.8112 103.939 76.1459 103.59C75.5637 103.12 74.9786 102.673 74.3929 102.198C73.7555 101.676 73.1849 101.129 72.5533 100.604C72.1205 100.073 71.6876 99.5711 71.2573 99.0317C70.7898 98.4464 70.3507 97.8608 69.8915 97.2787C69.5592 96.6033 69.2005 95.9626 68.8592 95.2851C67.0394 91.6724 65.3662 88.0792 63.7881 84.5175C65.1229 81.6634 66.506 78.7917 67.9934 75.9108C68.1623 75.5883 68.3367 75.2912 68.5056 74.9687C69.2593 74.0203 69.9838 73.0719 70.7608 72.1258C70.9932 71.8433 71.2279 71.5811 71.4601 71.2981C72.3894 70.5273 73.2959 69.754 74.2457 68.9948C74.5268 68.7666 74.8168 68.5704 75.0979 68.3422C76.1691 67.7818 77.2143 67.212 78.3056 66.6623C81.5625 65.0217 84.7937 63.5167 88.0104 62.0691C91.2015 63.5435 94.4244 65.0958 97.6481 66.7632C98.3308 67.118 98.9817 67.481 99.6587 67.8388C100.23 68.2999 100.803 68.7384 101.374 69.1998C102.019 69.7241 102.591 70.2718 103.225 70.8023C103.655 71.3273 104.088 71.8293 104.516 72.3633C104.986 72.9545 105.428 73.5454 105.893 74.1393C106.24 74.7993 106.59 75.4364 106.928 76.1086ZM92.2444 62.0964C91.5416 61.759 90.8506 61.4449 90.1451 61.1163C90.3116 61.047 90.4785 60.9629 90.6448 60.8932C91.1718 61.2826 91.705 61.6981 92.2444 62.0964ZM92.5001 60.088C92.8505 59.9402 93.1983 59.801 93.5486 59.6532C94.6996 60.895 95.8454 62.1688 96.9943 63.4624C95.495 62.302 93.9989 61.1906 92.5001 60.088ZM88.0249 60.124C87.6418 59.9496 87.25 59.7582 86.8673 59.5836C87.1917 59.3555 87.5189 59.1327 87.8429 58.9048C88.2145 59.1711 88.5896 59.4289 88.9641 59.701C88.651 59.8379 88.3351 59.9824 88.0249 60.124ZM85.8848 61.0799C84.7615 61.5951 83.6416 62.1305 82.5101 62.6718C83.3968 62.0164 84.2751 61.4013 85.1651 60.7656C85.4012 60.8768 85.6432 60.971 85.8848 61.0799ZM77.3357 64.4214C78.8693 62.6914 80.4089 61.0158 81.9513 59.3747C82.3835 59.5604 82.8268 59.7546 83.2619 59.9461C81.2868 61.3725 79.3124 62.8997 77.3357 64.4214ZM62.039 80.4868C61.9351 80.237 61.8335 79.9928 61.7319 79.7487C62.5982 78.9522 63.4675 78.1616 64.3594 77.3736C63.5604 78.4175 62.8125 79.4491 62.039 80.4868ZM61.847 84.5081C61.6643 84.9028 61.481 85.2972 61.3042 85.6889C61.1657 85.4853 61.0298 85.2871 60.8912 85.0835C61.1403 84.7347 61.372 84.3805 61.6298 84.02C61.6991 84.1865 61.7748 84.3504 61.847 84.5081ZM62.8139 86.6568C63.2973 87.7168 63.7635 88.7708 64.2729 89.8391C63.675 89.0241 63.0601 88.203 62.4797 87.3938C62.5853 87.1466 62.6999 86.9016 62.8139 86.6568ZM65.4861 94.4635C63.9953 93.1188 62.553 91.7856 61.1227 90.4325C61.2996 90.0266 61.4542 89.632 61.6341 89.2174C62.89 90.9679 64.1665 92.7158 65.4861 94.4635ZM83.5436 109.297C84.2464 109.634 84.9432 109.945 85.6429 110.277C85.4764 110.346 85.3095 110.43 85.1432 110.5C84.6191 110.116 84.0829 109.695 83.5436 109.297ZM83.2878 111.305C82.9258 111.459 82.5784 111.598 82.2193 111.743C81.0625 110.489 79.9111 109.204 78.7533 107.893C80.2672 109.068 81.7777 110.194 83.2878 111.305ZM87.7657 111.275C87.9815 111.375 88.2007 111.48 88.4165 111.58C88.1178 111.788 87.8222 111.988 87.5236 112.196C87.2871 112.027 87.0536 111.863 86.8206 111.7C87.137 111.555 87.4529 111.411 87.7657 111.275ZM89.9031 110.313C90.2191 110.169 90.5353 110.038 90.8541 109.885C90.6071 110.067 90.3604 110.22 90.1137 110.402C90.0357 110.377 89.9691 110.345 89.9031 110.313ZM95.6068 108.528C94.6778 109.557 93.7437 110.59 92.8114 111.585C92.5436 111.468 92.2759 111.35 92.0023 111.236C93.2052 110.364 94.4044 109.429 95.6068 108.528ZM110.019 91.0638C110.702 89.661 111.357 88.2729 112.005 86.8874C112.141 87.2003 112.292 87.5137 112.428 87.8268C111.646 88.9052 110.83 89.9859 110.019 91.0638ZM113.254 89.6938C113.453 90.162 113.633 90.6189 113.827 91.0897C112.17 92.6302 110.462 94.1602 108.707 95.6924C110.274 93.6863 111.787 91.6856 113.254 89.6938ZM112.989 84.7506C113.097 84.5085 113.208 84.2724 113.317 84.0303C113.621 84.4608 113.898 84.8827 114.195 85.3161C113.998 85.5958 113.812 85.8696 113.614 86.149C113.408 85.6841 113.202 85.2188 112.989 84.7506ZM112.022 82.6019C111.874 82.2801 111.709 81.9526 111.558 81.6256C111.746 81.8839 111.931 82.1366 112.119 82.3949C112.087 82.4608 112.053 82.536 112.022 82.6019ZM110.29 76.921C111.294 77.8269 112.323 78.7126 113.301 79.6245C113.175 79.9183 113.061 80.206 112.93 80.5028C112.055 79.3086 111.197 78.1205 110.29 76.921ZM107.409 72.1008C109.889 73.523 112.301 74.9653 114.644 76.4281C114.447 76.9089 114.233 77.3987 114.03 77.8824C111.924 75.9327 109.646 74.0267 107.409 72.1008ZM105.046 68.711C102.946 64.8285 100.804 61.1335 98.6362 57.5881C107.459 54.1449 115.82 51.5458 123.291 49.8499C121.561 57.3674 118.889 65.8139 115.329 74.7437C112.033 72.7022 108.627 70.6878 105.046 68.711ZM101.445 65.8941C99.4044 63.4868 97.364 61.1661 95.3156 58.9288C95.8587 58.7058 96.4098 58.471 96.95 58.2568C98.4702 60.7174 99.9676 63.2757 101.445 65.8941ZM94.0084 57.5355C93.4602 56.9475 92.909 56.3537 92.3609 55.7803C93.0841 55.3007 93.7907 54.8874 94.5139 54.4224C95.0081 55.1889 95.5051 55.9321 96.0019 56.7186C95.3356 56.9817 94.6749 57.2572 94.0084 57.5355ZM92.2473 58.2566C91.7792 58.4564 91.3111 58.6562 90.8372 58.8589C90.3503 58.5067 89.8743 58.1771 89.3904 57.8308C89.8896 57.4927 90.3891 57.1263 90.8917 56.7938C91.3416 57.2727 91.7974 57.7778 92.2473 58.2566ZM87.8626 56.7567C87.1938 56.2869 86.5223 55.7969 85.8624 55.3446C86.4646 54.7386 87.0582 54.1155 87.6605 53.5241C88.3181 54.1863 88.9818 54.8461 89.6425 55.5289C89.0479 55.9223 88.4567 56.3494 87.8626 56.7567ZM86.3185 57.8226C85.8709 58.1347 85.4229 58.4324 84.978 58.7499C84.3964 58.4954 83.8143 58.2412 83.2356 57.9926C83.683 57.5225 84.1358 57.0925 84.586 56.6283C85.1658 57.0209 85.7418 57.4216 86.3185 57.8226ZM81.5192 57.2443C80.7592 56.9216 80.0159 56.6187 79.2618 56.3077C79.757 55.5329 80.2585 54.8262 80.7622 54.0684C81.5376 54.578 82.3241 55.1106 83.1054 55.6319C82.5747 56.1799 82.0469 56.6904 81.5192 57.2443ZM80.2466 58.6347C77.7754 61.2764 75.3242 64.0453 72.8911 66.8912C74.6651 63.7653 76.4681 60.754 78.2943 57.8472C78.9533 58.1122 79.5955 58.3573 80.2466 58.6347ZM69.6018 69.2676C66.1935 71.1358 62.9259 73.0411 59.7797 74.9572C56.1629 65.7041 53.4907 56.9683 51.8108 49.2308C59.3195 50.9427 67.7611 53.6329 76.6528 57.1757C74.2454 61.0162 71.899 65.0786 69.6018 69.2676ZM66.8802 72.8275C64.872 74.5446 62.9272 76.2736 61.0223 78.0106C60.837 77.5566 60.6401 77.0943 60.4601 76.6375C62.5361 75.3544 64.6835 74.0854 66.8802 72.8275ZM59.6198 79.3151C59.0775 79.8256 58.5296 80.325 57.9932 80.8326C57.5832 80.2042 57.1987 79.5839 56.7915 78.9609C57.4977 78.5044 58.1864 78.0422 58.91 77.5911C59.1474 78.1629 59.3824 78.7432 59.6198 79.3151ZM60.3352 81.0503C60.4945 81.4235 60.6336 81.7856 60.7958 82.1646C60.4666 82.6112 60.1255 83.0643 59.805 83.5138C59.5335 83.1177 59.2503 82.713 58.9789 82.317C59.4288 81.8957 59.885 81.4712 60.3352 81.0503ZM58.728 85.0498C58.2981 85.655 57.8857 86.2515 57.4705 86.8567C56.9512 86.3408 56.4062 85.8305 55.8955 85.3171C56.4977 84.7257 57.0771 84.1312 57.6846 83.5371C58.0317 84.0396 58.387 84.5448 58.728 85.0498ZM59.817 86.6255C60.0305 86.9354 60.2359 87.2426 60.4552 87.5496C60.2293 88.0594 59.9781 88.5747 59.7522 89.0846C59.4178 88.7636 59.1003 88.4481 58.7714 88.1237C59.1122 87.6286 59.4649 87.127 59.817 86.6255ZM59.0157 90.8244C58.6957 91.5763 58.3788 92.3188 58.0706 93.0648C57.4542 92.6698 56.8629 92.2689 56.2609 91.8733C56.7617 91.1097 57.2316 90.3548 57.7529 89.5882C58.1763 90.0011 58.5857 90.4143 59.0157 90.8244ZM60.3858 92.1719C62.9555 94.5861 65.6661 96.9652 68.4346 99.3439C65.4009 97.6102 62.4333 95.8499 59.5923 94.0552C59.8517 93.4277 60.1259 92.7996 60.3858 92.1719ZM70.748 102.694C72.8477 106.576 74.9897 110.271 77.155 113.811C67.5222 117.576 58.4419 120.321 50.4798 121.984C52.2595 114.095 55.0807 105.156 58.9036 95.6911C62.6899 98.0758 66.6425 100.419 70.748 102.694ZM74.3717 105.542C76.4006 107.94 78.4354 110.235 80.4721 112.464C79.929 112.687 79.3837 112.919 78.8376 113.136C77.3323 110.69 75.8436 108.149 74.3717 105.542ZM81.7767 113.866C82.2151 114.337 82.6482 114.81 83.0837 115.275C82.3921 115.731 81.7172 116.151 81.0256 116.592C80.6152 115.95 80.199 115.338 79.789 114.68C80.4524 114.411 81.1102 114.145 81.7767 113.866ZM83.5178 113.148C83.9976 112.942 84.4716 112.74 84.9567 112.531C85.2997 112.783 85.6458 113.012 85.9858 113.258C85.5036 113.588 85.0301 113.934 84.5507 114.255C84.2043 113.896 83.8609 113.515 83.5178 113.148ZM87.5103 114.341C88.0349 114.711 88.5565 115.089 89.0782 115.453C88.5105 116.027 87.9458 116.606 87.3805 117.172C86.8467 116.627 86.3163 116.102 85.7767 115.546C86.3508 115.156 86.9277 114.743 87.5103 114.341ZM89.0548 113.275C89.4708 112.986 89.8785 112.709 90.2949 112.42C90.7125 112.606 91.1242 112.78 91.5418 112.965C91.1433 113.389 90.7391 113.773 90.3348 114.186C89.9106 113.888 89.4784 113.573 89.0548 113.275ZM93.2463 113.706C93.825 113.954 94.4156 114.225 94.9913 114.468C94.5563 115.148 94.1147 115.759 93.68 116.425C93.0601 116.01 92.4379 115.603 91.8124 115.177C92.2913 114.683 92.7732 114.211 93.2463 113.706ZM94.5109 112.327C96.2914 110.415 98.0686 108.468 99.8317 106.45C98.544 108.668 97.2417 110.815 95.9279 112.924C95.4525 112.724 94.9859 112.527 94.5109 112.327ZM103.45 103.597C107.846 101.26 112.032 98.8634 116.009 96.4355C119.625 105.689 122.292 114.427 123.977 122.162C116.028 120.348 107.04 117.444 97.5719 113.586C99.5642 110.379 101.527 107.043 103.45 103.597ZM106.462 99.9413C109.271 97.5831 111.976 95.2195 114.554 92.8619C114.815 93.4939 115.084 94.1285 115.334 94.7523C112.489 96.5096 109.514 98.2381 106.462 99.9413ZM115.954 91.552C116.465 91.0789 116.978 90.5969 117.474 90.1236C117.992 90.9071 118.463 91.6708 118.963 92.4491C118.268 92.8997 117.588 93.3504 116.876 93.7956C116.574 93.0543 116.267 92.3021 115.954 91.552ZM115.227 89.7794C114.984 89.2106 114.72 88.6305 114.474 88.0557C114.755 87.6695 115.006 87.2834 115.281 86.9002C115.671 87.4745 116.079 88.0541 116.46 88.6256C116.056 89.0092 115.631 89.3958 115.227 89.7794ZM116.376 85.3268C116.748 84.7938 117.126 84.2575 117.493 83.7272C118.151 84.3753 118.828 85.0201 119.472 85.6683C118.901 86.2364 118.35 86.8018 117.765 87.3705C117.306 86.6872 116.849 86.0099 116.376 85.3268ZM115.293 83.7481C114.926 83.2342 114.53 82.7064 114.161 82.1866C114.343 81.7778 114.495 81.3776 114.672 80.9715C115.194 81.4648 115.676 81.9635 116.192 82.4594C115.902 82.8861 115.588 83.3187 115.293 83.7481ZM115.408 79.2324C115.671 78.6106 115.937 77.9941 116.188 77.3782C116.992 77.8879 117.756 78.4034 118.539 78.9156C118.087 79.6043 117.655 80.29 117.196 80.9816C116.585 80.3965 116.026 79.8144 115.408 79.2324ZM116.894 75.7045C120.734 66.1877 123.535 57.2946 125.277 49.4174C128.508 48.7406 131.538 48.2512 134.344 47.9465C131.579 56.3243 126.479 66.5268 119.528 77.3877C118.663 76.8292 117.787 76.2627 116.894 75.7045ZM123.728 47.8429C115.904 49.5517 107.085 52.3016 97.6885 56.0195C97.1482 55.1468 96.599 54.3146 96.0561 53.4646C100.999 50.3551 105.892 47.4873 110.596 45.1177C115.944 42.4241 120.795 40.4337 125.174 39.0058C124.875 41.7419 124.395 44.6913 123.728 47.8429ZM109.803 43.544C105.042 45.9424 100.098 48.8362 95.0968 51.9889C94.3455 50.8404 93.5946 49.6924 92.8374 48.5903C101.634 40.4938 110.172 34.1262 117.524 30.4228C120.367 28.9907 122.83 28.1464 125.103 27.5846C125.571 30.2439 125.679 33.4156 125.381 37.1012C120.73 38.5589 115.547 40.6507 109.803 43.544ZM93.5609 52.9426C92.7573 53.4627 91.9564 53.9454 91.1521 54.48C90.4108 53.7085 89.672 52.9858 88.9306 52.2431C89.7853 51.4092 90.6369 50.6562 91.4892 49.8595C92.1773 50.867 92.8677 51.8949 93.5609 52.9426ZM87.6877 51.0042C86.7072 50.0293 85.7289 49.0745 84.7514 48.148C85.6936 46.8165 86.6363 45.6289 87.5791 44.3686C88.5462 45.6743 89.5108 47.0174 90.4757 48.4036C89.544 49.2701 88.6202 50.0957 87.6877 51.0042ZM86.4262 52.2737C85.7436 52.9489 85.0554 53.6557 84.376 54.3506C83.494 53.758 82.6207 53.1678 81.7449 52.6008C82.3977 51.6239 83.0506 50.6182 83.709 49.6671C84.612 50.5304 85.5205 51.3757 86.4262 52.2737ZM79.2929 53.1231C78.729 53.976 78.1615 54.7659 77.6006 55.6392C68.1758 51.8534 59.2828 49.0382 51.4027 47.3043C50.7692 44.1456 50.3318 41.1901 50.0648 38.4441C58.385 41.1515 68.5012 46.2093 79.2929 53.1231ZM49.4486 46.8699C46.2598 46.2297 43.2555 45.7695 40.4707 45.516C39.4793 41.9754 38.9838 38.8765 38.939 36.242C41.6113 36.3001 44.7133 36.8406 48.1991 37.8571C48.4231 40.6461 48.835 43.6504 49.4486 46.8699ZM49.8282 48.7817C51.5175 56.8675 54.3262 66.0597 58.2178 75.9021C57.3938 76.4105 56.6161 76.9249 55.8149 77.4365C50.6167 69.2032 46.356 61.2171 43.3835 53.9435C42.4333 51.6137 41.6847 49.4418 41.0314 47.3585C43.7584 47.6405 46.7024 48.1239 49.8282 48.7817ZM55.3222 79.917C55.7816 80.6291 56.218 81.3381 56.692 82.0501C55.9835 82.7311 55.3294 83.406 54.6413 84.0839C53.9057 83.3237 53.1758 82.5751 52.466 81.8238C53.3989 81.1885 54.352 80.5497 55.3222 79.917ZM53.3939 85.3244C52.4789 86.2387 51.573 87.1564 50.6953 88.0733C49.5077 87.2313 48.326 86.3863 47.1932 85.538C48.4302 84.6342 49.7103 83.73 51.0104 82.8231C51.7926 83.6611 52.5834 84.4871 53.3939 85.3244ZM54.6513 86.5486C55.2369 87.1391 55.857 87.7269 56.4544 88.3121C55.8703 89.1683 55.3064 90.0212 54.7419 90.8743C53.86 90.2817 53.0012 89.6915 52.1393 89.0962C52.9596 88.2509 53.8 87.4027 54.6513 86.5486ZM53.7855 92.3495C46.216 104.026 40.8349 114.874 38.1088 123.743C34.6005 123.941 31.5832 123.769 29.0645 123.258C30.1384 118.814 32.8601 113.281 37.2389 106.964C40.9217 101.652 45.5849 96.0552 50.9205 90.3937C51.8687 91.0464 52.8173 91.6996 53.7855 92.3495ZM55.3016 93.3434C55.9932 93.8017 56.6763 94.2564 57.3792 94.7092C53.2703 104.765 50.284 114.162 48.5022 122.404C45.4869 122.98 42.6808 123.356 40.0613 123.588C42.8435 115.029 48.1013 104.524 55.3016 93.3434ZM48.094 124.338C47.468 127.513 47.0393 130.479 46.7948 133.238C43.3837 134.157 40.3848 134.623 37.8338 134.634C37.9122 131.987 38.4208 128.923 39.4462 125.44C42.1315 125.253 45.0009 124.902 48.094 124.338ZM50.0454 123.953C58.3555 122.294 67.8756 119.421 78.1086 115.376C78.5683 116.117 79.0336 116.826 79.4898 117.546C74.4114 120.76 69.3899 123.699 64.5649 126.13C58.6776 129.095 53.3686 131.237 48.6705 132.66C48.947 129.964 49.4021 127.064 50.0454 123.953ZM65.3494 127.701C70.2316 125.242 75.3076 122.267 80.4407 119.019C81.0822 120.007 81.7234 121.022 82.3709 121.978C73.3275 130.386 64.5257 137.002 56.9785 140.803C53.8769 142.366 51.193 143.271 48.7704 143.793C48.3137 141.2 48.1841 138.126 48.455 134.547C53.4265 133.109 59.0659 130.866 65.3494 127.701ZM81.9853 118.068C82.7577 117.571 83.5214 117.086 84.2932 116.574C84.9108 117.214 85.5193 117.808 86.131 118.436C85.3249 119.223 84.5308 119.962 83.7306 120.718C83.1499 119.851 82.5688 118.955 81.9853 118.068ZM87.3685 119.677C88.1994 120.511 89.0331 121.338 89.8549 122.141C88.9846 123.386 88.1105 124.539 87.2398 125.726C86.4108 124.581 85.579 123.373 84.7445 122.173C85.622 121.342 86.4907 120.537 87.3685 119.677ZM88.6101 118.425C89.2582 117.782 89.9005 117.127 90.5457 116.463C91.2691 116.956 91.978 117.419 92.7012 117.898C92.0885 118.826 91.4729 119.748 90.8601 120.647C90.1101 119.916 89.3574 119.179 88.6101 118.425ZM95.1415 117.396C95.6423 116.632 96.1434 115.912 96.6421 115.128C106.646 119.234 116.086 122.263 124.395 124.091C125.031 127.255 125.466 130.205 125.733 132.951C117.058 130.127 106.441 124.76 95.1415 117.396ZM126.349 124.525C129.532 125.169 132.533 125.623 135.312 125.879C136.315 129.399 136.807 132.493 136.861 135.159C134.186 135.095 131.087 134.56 127.599 133.539C127.374 130.749 126.959 127.739 126.349 124.525ZM125.963 122.616C124.274 114.531 121.465 105.338 117.571 95.4903C118.378 94.9904 119.153 94.4848 119.936 93.9821C126.932 105.098 132.029 115.529 134.714 124.034C132.004 123.743 129.072 123.268 125.963 122.616ZM120.484 91.4665C119.929 90.6085 119.383 89.7526 118.803 88.8856C119.476 88.2367 120.111 87.5933 120.767 86.9386C121.629 87.8218 122.492 88.6906 123.326 89.5742C122.39 90.2039 121.44 90.8338 120.484 91.4665ZM122.006 85.6953C122.886 84.8125 123.778 83.9239 124.618 83.0473C125.958 83.9925 127.278 84.9403 128.546 85.8857C127.327 86.7809 126.061 87.6705 124.775 88.563C123.875 87.6055 122.949 86.6532 122.006 85.6953ZM120.713 84.4307C119.998 83.7108 119.245 82.9885 118.506 82.2657C119.042 81.4705 119.537 80.6952 120.05 79.9115C121.081 80.6014 122.11 81.2859 123.105 81.9733C122.327 82.7894 121.53 83.6083 120.713 84.4307ZM121.04 78.3898C128.372 67.0127 133.607 56.4476 136.316 47.7449C140.092 47.4487 143.365 47.5429 146.087 48.0152C144.05 56.25 136.155 68.0542 124.38 80.6177C123.299 79.8731 122.164 79.1344 121.04 78.3898ZM134.015 28.4096C135.679 29.7679 136.546 32.0031 136.706 34.9246C133.957 34.9988 130.786 35.5376 127.214 36.5376C127.436 32.9764 127.309 29.8359 126.818 27.1742C129.883 26.682 132.346 27.0395 134.015 28.4096ZM111.594 21.0672C115.379 19.1606 118.467 18.8007 120.78 19.9898C122.684 20.9677 123.993 22.9656 124.758 25.7708C122.346 26.3588 119.672 27.3678 116.737 28.8463C109.305 32.5901 100.689 39.0034 91.8291 47.1324C90.7951 45.6516 89.7637 44.2048 88.7331 42.8156C96.8608 32.2624 104.874 24.4523 111.594 21.0672ZM54.6536 19.7063C61.328 16.3443 73.7039 26.0175 86.4926 42.9143C85.4814 44.2518 84.4759 45.5291 83.4617 46.9468C70.9012 35.235 59.1752 27.5243 50.6212 25.4674C51.4092 22.6581 52.7411 20.6697 54.6536 19.7063ZM41.6581 28.06C41.9769 27.8061 42.3299 27.5776 42.7032 27.3896C44.2481 26.6114 46.2526 26.4872 48.546 26.8375C48.0386 29.4475 47.8724 32.5197 48.0466 36.0105C44.6584 35.0741 41.6114 34.5713 38.9361 34.5074C39.146 31.5645 40.0367 29.359 41.6581 28.06ZM30.689 38.9355C31.2303 38.2668 31.9276 37.7209 32.7661 37.2985C33.9782 36.688 35.4757 36.3584 37.1752 36.2444C37.2148 38.8962 37.69 41.9547 38.6176 45.398C35.1134 45.1896 31.9932 45.2997 29.3658 45.7878C28.9577 42.8756 29.3737 40.5416 30.689 38.9355ZM34.3189 74.7905C24.1402 65.033 19.7261 56.6708 22.2172 51.8515C22.8521 50.6102 23.9474 49.5971 25.4753 48.8275C26.222 48.4513 27.0781 48.1495 28.0009 47.894C29.0844 52.5903 31.8484 58.3199 36.3031 64.876C39.914 70.1862 44.5611 75.7954 49.7813 81.4543C48.3777 82.428 46.9883 83.4013 45.6622 84.3719C41.465 81.1714 37.6273 77.9556 34.3189 74.7905ZM21.9043 118.936C18.5018 112.181 28.4475 99.5889 45.7293 86.6351C46.9458 87.5492 48.2026 88.457 49.4793 89.3622C44.1462 95.0297 39.4923 100.629 35.8008 105.952C31.2929 112.457 28.48 118.152 27.3433 122.843C24.7178 122.048 22.8271 120.768 21.9043 118.936ZM29.941 131.846C28.6387 130.219 28.2493 127.874 28.6952 124.956C31.2249 125.49 34.1651 125.722 37.553 125.586C36.6481 128.893 36.1598 131.883 36.0842 134.506C33.3479 134.25 31.2026 133.422 29.941 131.846ZM40.4919 142.813C38.8427 141.469 37.9791 139.254 37.8123 136.365C40.3721 136.357 43.3219 135.937 46.6325 135.09C46.433 138.554 46.5802 141.605 47.0625 144.206C44.2764 144.551 42.0513 144.094 40.4919 142.813ZM62.2838 150.278C58.4988 152.185 55.4021 152.542 53.0859 151.347C51.1964 150.369 49.896 148.389 49.1287 145.607C51.6986 145.047 54.5859 143.974 57.7678 142.371C65.3953 138.529 74.2718 131.876 83.3871 123.424C84.2794 124.725 85.178 126.036 86.0792 127.268C77.6361 138.469 69.2624 146.763 62.2838 150.278ZM121.134 151.685C114.287 155.134 101.453 144.879 88.3249 127.18C89.2644 125.915 90.1955 124.69 91.1378 123.358C104.143 135.71 116.331 143.851 125.161 145.956C124.37 148.745 123.041 150.725 121.134 151.685ZM134.124 143.335C133.805 143.589 133.452 143.817 133.079 144.005C131.511 144.795 129.509 144.939 127.225 144.621C127.741 141.999 127.915 138.901 127.735 135.384C131.132 136.322 134.185 136.823 136.868 136.889C136.679 139.786 135.791 141.998 134.124 143.335ZM145.096 132.465C144.551 133.128 143.857 133.68 143.019 134.102C141.807 134.712 140.309 135.042 138.61 135.156C138.57 132.475 138.089 129.405 137.184 125.994C140.677 126.208 143.788 126.095 146.416 125.607C146.83 128.516 146.411 130.859 145.096 132.465ZM153.574 119.546C152.939 120.787 151.838 121.803 150.316 122.57C149.569 122.946 148.707 123.251 147.784 123.506C146.697 118.804 143.94 113.072 139.485 106.515C135.874 101.205 131.227 95.5961 126.007 89.9372C127.396 88.9781 128.774 88.0107 130.082 87.0489C147.217 100.15 157.037 112.825 153.574 119.546ZM130.093 84.7248C128.741 83.7137 127.323 82.6995 125.884 81.6886C137.886 68.9174 145.749 57.0068 147.817 48.3462C150.787 49.1257 152.885 50.4739 153.883 52.4555C157.283 59.2041 147.346 71.7855 130.093 84.7248Z" fill="white"/>
</g>
</g>
<defs>
<clipPath id="clip0_90_252">
<rect width="176" height="176" fill="white"/>
</clipPath>
<clipPath id="clip1_90_252">
<rect width="185.125" height="185.183" fill="white" transform="translate(-36.46 44.6594) rotate(-26.7353)"/>
</clipPath>
</defs>
</svg>
